<svg width="298" height="123" viewBox="0 0 298 123" fill="none" xmlns="http://www.w3.org/2000/svg">
<path d="M32.3545 43.0311C31.811 43.3142 29.6425 44.4126 27.542 45.4714C25.4415 46.5301 22.7521 47.889 21.5688 48.4891C20.3855 49.0893 18.3925 50.0971 17.1356 50.7255C15.8843 51.3597 14.8765 51.8975 14.8992 51.9202C14.9615 51.9711 31.4939 60.3336 32.9943 61.064L33.4303 61.2791L34.0984 60.9508C34.9816 60.5148 51.3782 52.2372 51.9104 51.9598C52.0463 51.8862 52.3633 52.0504 43.4403 47.5549C39.4771 45.5506 35.6157 43.603 34.8684 43.218C34.1153 42.833 33.4642 42.5159 33.4246 42.5159C33.3793 42.5216 32.8981 42.7481 32.3545 43.0311Z" fill="#000131"/>
<path d="M13.7842 62.8868V72.2684L15.16 72.9648C15.913 73.3441 17.9569 74.3746 19.7008 75.2578C26.1439 78.5134 32.3379 81.6443 32.4285 81.684C32.4512 81.6953 32.4625 77.4716 32.4568 72.2967L32.4398 62.8924L29.156 61.2335C26.0533 59.6709 23.0695 58.1648 16.6321 54.9093C15.1034 54.1336 13.8351 53.4995 13.8182 53.4995C13.8012 53.4995 13.7842 57.7232 13.7842 62.8868Z" fill="#000131"/>
<path d="M51.5215 54.2529C49.9362 55.0625 43.2949 58.42 37.8199 61.1773L34.4228 62.8928L34.4058 72.2914C34.4002 77.4663 34.4115 81.6957 34.4398 81.6957C34.4625 81.6957 34.5304 81.6617 34.5927 81.6221C34.655 81.5768 37.1009 80.3368 40.028 78.8648C42.9552 77.3927 45.4803 76.1188 45.6332 76.0339C45.7917 75.9489 47.5299 75.0714 49.5002 74.0806L53.0785 72.2801V62.8872C53.0785 57.7236 53.0615 53.4999 53.0388 53.4999C53.0105 53.5056 52.3311 53.8396 51.5215 54.2529Z" fill="#000131"/>
<path d="M0 89.9312V96.5206L6.37607 96.49L12.7372 96.444V94.9116V93.3791L7.8658 93.3332L2.97947 93.3025V88.3222V83.3418H1.48974H0V89.9312Z" fill="#000131"/>
<path d="M66.851 89.9436V96.533L60.4749 96.5024L54.1137 96.4564V94.924V93.3916L58.9852 93.3456L63.8715 93.3149V88.3346V83.3542H65.3612H66.851V89.9436Z" fill="#000131"/>
<path d="M0 34.2799V27.6905L6.37607 27.7211L12.7372 27.7671V29.2995V30.8319L7.8658 30.8779L2.97947 30.9086V35.8889V40.8693H1.48974H0V34.2799Z" fill="#000131"/>
<path d="M66.851 34.2799V27.6905L60.4749 27.7211L54.1137 27.7671V29.2995V30.8319L58.9852 30.8779L63.8715 30.9086V35.8889V40.8693H65.3612H66.851V34.2799Z" fill="#000131"/>
<path d="M85.7419 27.3562H102.02C107.577 27.3562 111.63 28.6637 114.18 31.2787C116.73 33.8283 118.004 37.7835 118.004 43.1443V45.89C118.004 49.4203 117.416 52.2968 116.239 54.5195C115.128 56.7423 113.396 58.344 111.042 59.3246V59.5207C116.403 61.3512 119.083 66.1236 119.083 73.8379V79.7216C119.083 85.017 117.678 89.0702 114.866 91.8814C112.121 94.6271 108.067 96 102.707 96H85.7419V27.3562ZM100.745 55.304C102.903 55.304 104.505 54.7483 105.551 53.637C106.662 52.5256 107.218 50.6624 107.218 48.0474V44.2229C107.218 41.7387 106.76 39.9409 105.845 38.8295C104.995 37.7181 103.622 37.1624 101.726 37.1624H96.5288V55.304H100.745ZM102.707 86.1937C104.603 86.1937 106.008 85.7034 106.923 84.7228C107.839 83.6768 108.296 81.9117 108.296 79.4274V73.4456C108.296 70.3076 107.741 68.1502 106.629 66.9735C105.583 65.7313 103.818 65.1103 101.334 65.1103H96.5288V86.1937H102.707ZM138.431 96C136.273 96 134.279 95.477 132.449 94.431C130.684 93.385 129.278 91.9794 128.232 90.2143C127.186 88.3838 126.663 86.3899 126.663 84.2325V37.1624C126.663 35.0051 127.186 33.0438 128.232 31.2787C129.278 29.4482 130.684 28.0099 132.449 26.9639C134.279 25.9179 136.273 25.3949 138.431 25.3949H185.501C187.658 25.3949 189.619 25.9179 191.384 26.9639C193.215 28.0099 194.653 29.4482 195.699 31.2787C196.745 33.0438 197.268 35.0051 197.268 37.1624V84.2325C197.268 86.3899 196.745 88.3838 195.699 90.2143C194.653 91.9794 193.215 93.385 191.384 94.431C189.619 95.477 187.658 96 185.501 96H138.431ZM138.431 88.0569H185.501C186.547 88.0569 187.429 87.6974 188.148 86.9782C188.933 86.1937 189.325 85.2785 189.325 84.2325V37.1624C189.325 36.1164 188.933 35.2339 188.148 34.5147C187.429 33.7302 186.547 33.338 185.501 33.338H138.431C137.385 33.338 136.469 33.7302 135.685 34.5147C134.966 35.2339 134.606 36.1164 134.606 37.1624V84.2325C134.606 85.2785 134.966 86.1937 135.685 86.9782C136.469 87.6974 137.385 88.0569 138.431 88.0569ZM216.108 60.8936L204.243 27.3562H215.618L222.875 49.5183H223.071L230.524 27.3562H240.722L228.857 60.8936L241.311 96H229.935L222.09 72.0727H221.894L213.853 96H203.654L216.108 60.8936ZM246.434 27.3562H257.221V96H246.434V27.3562ZM273.733 37.1624H262.456V27.3562H295.797V37.1624H284.52V96H273.733V37.1624Z" fill="#000131"/>
</svg>
