<svg width="173" height="267" viewBox="0 0 173 267" fill="none" xmlns="http://www.w3.org/2000/svg">
<path d="M84.0379 38.5214C82.673 39.2323 77.2279 41.9904 71.9533 44.649C66.6788 47.3076 59.9256 50.7197 56.9543 52.2267C53.9829 53.7338 48.9785 56.2644 45.8223 57.8425C42.6803 59.4348 40.1496 60.7854 40.2065 60.8423C40.3629 60.9703 81.8769 81.9689 85.6444 83.803L86.7391 84.3432L88.4167 83.5186C90.6346 82.4239 131.807 61.6385 133.144 60.9418C133.485 60.757 134.281 61.1693 111.875 49.8809C101.923 44.8481 92.2269 39.9574 90.3503 38.9906C88.4594 38.0238 86.8244 37.2277 86.7249 37.2277C86.6112 37.2419 85.4027 37.8106 84.0379 38.5214Z" fill="#000131"/>
<path d="M37.406 88.3805V111.938L40.8608 113.687C42.7516 114.64 47.884 117.227 52.2629 119.445C68.442 127.62 83.9955 135.482 84.223 135.581C84.2798 135.61 84.3083 125.004 84.2941 112.009L84.2514 88.3948L76.0055 84.2291C68.2145 80.3052 60.7221 76.5235 44.5572 68.3486C40.7186 66.4009 37.534 64.8086 37.4913 64.8086C37.4487 64.8086 37.406 75.4145 37.406 88.3805Z" fill="#000131"/>
<path d="M132.165 66.6998C128.185 68.7328 111.508 77.1636 97.7599 84.0873L89.2297 88.3951L89.187 111.995C89.1728 124.99 89.2012 135.61 89.2723 135.61C89.3292 135.61 89.4998 135.525 89.6562 135.425C89.8126 135.312 95.9544 132.198 103.305 128.502C110.655 124.805 116.996 121.606 117.38 121.393C117.778 121.18 122.142 118.976 127.09 116.488L136.075 111.967V88.3809C136.075 75.4149 136.032 64.8089 135.976 64.8089C135.904 64.8231 134.198 65.6619 132.165 66.6998Z" fill="#000131"/>
<path d="M2.7926 156.292V172.838L18.8033 172.761L34.7765 172.646V168.798V164.95L22.5441 164.834L10.2742 164.757V152.251V139.745H6.53341H2.7926V156.292Z" fill="#000131"/>
<path d="M170.658 156.321V172.868L154.647 172.791L138.674 172.675V168.827V164.979L150.906 164.864L163.176 164.787V152.281V139.775H166.917H170.658V156.321Z" fill="#000131"/>
<path d="M2.7926 16.5464V6.10352e-05L18.8033 0.0770208L34.7765 0.192461V4.04045V7.88844L22.5441 8.00388L10.2742 8.08084V20.5868V33.0928H6.53341H2.7926V16.5464Z" fill="#000131"/>
<path d="M170.658 16.5464V6.10352e-05L154.647 0.0770208L138.674 0.192461V4.04045V7.88844L150.906 8.00388L163.176 8.08084V20.5868V33.0928H166.917H170.658V16.5464Z" fill="#000131"/>
<path d="M3.20312 190.768H16.1719C20.599 190.768 23.8281 191.81 25.8594 193.893C27.8906 195.925 28.9062 199.076 28.9062 203.347V205.534C28.9062 208.347 28.4375 210.638 27.5 212.409C26.6146 214.18 25.2344 215.456 23.3594 216.237V216.393C27.6302 217.852 29.7656 221.654 29.7656 227.8V232.487C29.7656 236.706 28.6458 239.935 26.4062 242.175C24.2187 244.362 20.9896 245.456 16.7187 245.456H3.20312V190.768ZM15.1562 213.034C16.875 213.034 18.151 212.591 18.9844 211.706C19.8698 210.82 20.3125 209.336 20.3125 207.253V204.206C20.3125 202.227 19.9479 200.794 19.2187 199.909C18.5417 199.024 17.4479 198.581 15.9375 198.581H11.7969V213.034H15.1562ZM16.7187 237.643C18.2292 237.643 19.349 237.253 20.0781 236.471C20.8073 235.638 21.1719 234.232 21.1719 232.253V227.487C21.1719 224.987 20.7292 223.268 19.8437 222.331C19.0104 221.341 17.6042 220.846 15.625 220.846H11.7969V237.643H16.7187ZM45.1794 245.456C43.4607 245.456 41.8721 245.039 40.4138 244.206C39.0076 243.373 37.8878 242.253 37.0544 240.846C36.2211 239.388 35.8044 237.8 35.8044 236.081V198.581C35.8044 196.862 36.2211 195.3 37.0544 193.893C37.8878 192.435 39.0076 191.289 40.4138 190.456C41.8721 189.623 43.4607 189.206 45.1794 189.206H82.6794C84.3982 189.206 85.9607 189.623 87.3669 190.456C88.8253 191.289 89.9711 192.435 90.8044 193.893C91.6378 195.3 92.0544 196.862 92.0544 198.581V236.081C92.0544 237.8 91.6378 239.388 90.8044 240.846C89.9711 242.253 88.8253 243.373 87.3669 244.206C85.9607 245.039 84.3982 245.456 82.6794 245.456H45.1794ZM45.1794 239.128H82.6794C83.5128 239.128 84.2159 238.841 84.7888 238.268C85.4138 237.643 85.7263 236.914 85.7263 236.081V198.581C85.7263 197.748 85.4138 197.044 84.7888 196.472C84.2159 195.847 83.5128 195.534 82.6794 195.534H45.1794C44.3461 195.534 43.6169 195.847 42.9919 196.472C42.419 197.044 42.1326 197.748 42.1326 198.581V236.081C42.1326 236.914 42.419 237.643 42.9919 238.268C43.6169 238.841 44.3461 239.128 45.1794 239.128ZM107.064 217.487L97.6111 190.768H106.674L112.455 208.425H112.611L118.549 190.768H126.674L117.22 217.487L127.142 245.456H118.08L111.83 226.393H111.674L105.267 245.456H97.1423L107.064 217.487ZM131.224 190.768H139.818V245.456H131.224V190.768ZM152.973 198.581H143.989V190.768H170.551V198.581H161.567V245.456H152.973V198.581Z" fill="#000131"/>
</svg>
